<svg xmlns="http://www.w3.org/2000/svg" width="1600" height="600" viewBox="0 0 1600 600"><rect width="1600" height="600" rx="24" fill="#f1f4fb"/><circle cx="1510" cy="100" r="230" fill="#e7e7ff"/><circle cx="1460" cy="120" r="160" fill="#dedfff"/><g transform="translate(90 75) scale(1.5)"><polygon points="0,29.7 11.5,24 11.5,58 0,58" fill="#0f172a"/><polygon points="0,29.7 11.5,24 11.5,33.5 0,38.6" fill="#8ea3b0"/><g fill="#0f172a"><rect x="2" y="30.6" width="1.9" height="2.4"/><rect x="4.4" y="29.8" width="1.9" height="2.4"/><rect x="6.8" y="29" width="1.9" height="2.4"/><rect x="2" y="34.2" width="1.9" height="2.4"/><rect x="4.4" y="33.4" width="1.9" height="2.4"/><rect x="6.8" y="32.6" width="1.9" height="2.4"/></g><polygon points="14.5,17 35.3,1.5 35.3,58 14.5,58" fill="#0f172a"/><polygon points="34.1,2.4 35.3,1.5 35.3,58 34.1,58" fill="#1e293b"/><polygon points="38,2.5 59.5,24 59.5,58 38,58" fill="#4141fd"/><path d="M38 11.75 56.5 21M38 26.25 59.5 37" stroke="white" stroke-width="1.8"/></g><g font-family="Avenir Next,Arial,sans-serif" fill="#0f172a"><text x="207" y="150" font-size="70" font-weight="800">Strukta</text><text x="90" y="298" font-size="88" font-weight="800" letter-spacing="-3">Give work structure.</text><text x="94" y="360" font-size="28" fill="#475569">One family. Three focused apps.</text><g font-size="32" font-weight="700"><text x="94" y="495">Strukta<tspan fill="#4141fd">One</tspan></text><text x="510" y="495">Strukta<tspan fill="#4141fd">Flow</tspan></text><text x="950" y="495">Strukta<tspan fill="#4141fd">Log</tspan></text></g><g font-size="20" fill="#475569"><text x="94" y="535">Documents &amp; drawings</text><text x="510" y="535">Workflow orchestration</text><text x="950" y="535">Work records &amp; time</text></g></g></svg>
